<?xml version="1.0" standalone="no"?><!DOCTYPE svg PUBLIC "-//W3C//DTD SVG 1.1//EN" "http://www.w3.org/Graphics/SVG/1.1/DTD/svg11.dtd"><svg class="icon" width="200px" height="200.00px" viewBox="0 0 1024 1024" version="1.1" xmlns="http://www.w3.org/2000/svg"><path d="M921.6 153.6H409.6L307.2 0H102.4a102.4 102.4 0 0 0-102.4 102.4v819.2a102.4 102.4 0 0 0 102.4 102.4h819.2a102.4 102.4 0 0 0 102.4-102.4V256a102.4 102.4 0 0 0-102.4-102.4z m0 768H102.4V102.4h150.016l72.192 108.032 30.208 45.568H921.6z"  /><path d="M504.32 708.608a51.2 51.2 0 0 0-39.936 16.896 54.784 54.784 0 0 0-15.872 38.912 51.2 51.2 0 0 0 15.872 38.912 53.76 53.76 0 0 0 39.936 15.872 55.296 55.296 0 0 0 0-110.592zM582.656 374.784A153.6 153.6 0 0 0 512 358.4a134.144 134.144 0 0 0-102.4 36.864 81.408 81.408 0 0 0-23.04 56.832 56.32 56.32 0 0 0 11.264 35.328 44.032 44.032 0 0 0 59.392 6.656 38.912 38.912 0 0 0 13.312-33.28 44.544 44.544 0 0 0-9.728-30.72 37.888 37.888 0 0 1-14.336-20.48 21.504 21.504 0 0 1 10.752-19.456 51.2 51.2 0 0 1 27.648-6.656 51.2 51.2 0 0 1 47.616 32.768 138.752 138.752 0 0 1 8.704 51.2 189.952 189.952 0 0 1-24.576 90.112 168.96 168.96 0 0 0-24.576 72.192v28.672H512a117.248 117.248 0 0 1 6.656-47.104 81.408 81.408 0 0 1 27.648-27.648l30.208-18.944a153.6 153.6 0 0 0 45.056-41.472 91.136 91.136 0 0 0 16.896-51.2 98.304 98.304 0 0 0-55.808-97.28z"  /></svg>