<?xml version="1.0" standalone="no"?><!DOCTYPE svg PUBLIC "-//W3C//DTD SVG 1.1//EN" "http://www.w3.org/Graphics/SVG/1.1/DTD/svg11.dtd"><svg class="icon" width="200px" height="200.00px" viewBox="0 0 1024 1024" version="1.1" xmlns="http://www.w3.org/2000/svg"><path d="M430.592 435.712H129.024c-41.472 0-75.776 33.792-75.776 75.264 0 41.984 33.792 75.264 75.776 75.264h301.568v301.568c0 41.984 33.792 75.776 75.264 75.776 41.984 0 75.264-33.792 75.264-75.776v-301.568h301.568c41.472 0 75.776-33.792 75.776-75.264 0-41.984-33.792-75.264-75.776-75.264h-301.568V134.144c0-41.472-33.792-75.776-75.264-75.776-41.984 0-75.264 33.792-75.264 75.776v301.568z" /></svg>