<?xml version="1.0" standalone="no"?><!DOCTYPE svg PUBLIC "-//W3C//DTD SVG 1.1//EN" "http://www.w3.org/Graphics/SVG/1.1/DTD/svg11.dtd"><svg t="1548306277708" class="icon" style="" viewBox="0 0 1064 1024" version="1.1" xmlns="http://www.w3.org/2000/svg" p-id="11542" xmlns:xlink="http://www.w3.org/1999/xlink" width="831.25" height="800"><defs><style type="text/css">@font-face { font-family: uc-nexus-iconfont; src: url("chrome-extension://pogijhnlcfmcppgimcaccdkmbedjkmhi/res/font_9qmmi8b8jsxxbt9.woff") format("woff"), url("chrome-extension://pogijhnlcfmcppgimcaccdkmbedjkmhi/res/font_9qmmi8b8jsxxbt9.ttf") format("truetype"); }
</style></defs><path d="M47.739004 380.343604c76.375871 272.246292 481.546371 600.733771 481.546371 600.733771s405.15743-328.487479 481.533301-600.733771c8.057795-26.179665 12.416716-53.947362 12.416716-82.799888 0-151.033007-117.998009-273.448753-263.371608-273.448753-110.521839 0-195.491384 70.631506-230.0556 170.697164-0.150308 0.045746-0.522809 0.182983-0.522809 0.182983s-0.339826-0.137237-0.483598-0.182983c-34.577285-100.072193-119.540296-170.697164-230.003319-170.697164-145.523907 0-263.430424 122.415746-263.430424 273.448753C35.368034 326.396242 39.73349 354.163939 47.739004 380.343604z" p-id="11543" fill="#bfbfbf"></path></svg>