<?xml version="1.0" standalone="no"?><!DOCTYPE svg PUBLIC "-//W3C//DTD SVG 1.1//EN" "http://www.w3.org/Graphics/SVG/1.1/DTD/svg11.dtd"><svg t="1548301189942" class="icon" style="" viewBox="0 0 1024 1024" version="1.1" xmlns="http://www.w3.org/2000/svg" p-id="5084" xmlns:xlink="http://www.w3.org/1999/xlink" width="800" height="800"><defs><style type="text/css">@font-face { font-family: uc-nexus-iconfont; src: url("chrome-extension://pogijhnlcfmcppgimcaccdkmbedjkmhi/res/font_9qmmi8b8jsxxbt9.woff") format("woff"), url("chrome-extension://pogijhnlcfmcppgimcaccdkmbedjkmhi/res/font_9qmmi8b8jsxxbt9.ttf") format("truetype"); }
</style></defs><path d="M273.3 907.7c-17.8 0-32.2-14.4-32.2-32.2s14.4-32.2 32.2-32.2h175.5V697.2c0-8.5 3.4-16.8 9.4-22.8 6.1-6.1 14.1-9.4 22.7-9.4h414.7V185.2H128.4V665h79.4l178.5-221.4c5.6-6.8 13.4-11 21.9-11.8 1-0.1 2.1-0.1 3.1-0.1 7.6 0 14.9 2.6 20.6 7.4l77.2 63.7L642.5 359c-4.5-11.3-6.8-23.4-6.8-36 0-54.4 44.3-98.7 98.7-98.7 54.4 0 98.7 44.3 98.7 98.7 0 54.4-44.3 98.7-98.7 98.7-17.6 0-34.8-4.6-49.7-13.4L535.7 569c-6.1 6.5-14.8 10.3-23.7 10.3-7.4 0-14.7-2.6-20.4-7.4L416 509.5l-167.8 208c-6.2 7.6-15.4 11.9-25.1 11.9H96.2c-8.7 0-16.7-3.3-22.8-9.4-6-6-9.4-14.3-9.4-22.8V153c0-8.5 3.4-16.8 9.4-22.8 6.1-6.1 14.1-9.4 22.7-9.4H928c8.6 0 16.7 3.4 22.8 9.5 6 6.1 9.3 14.2 9.3 22.7v544.2c0 8.5-3.4 16.8-9.4 22.8-6.1 6.1-14.1 9.4-22.7 9.4H513.2v114h166.3c17.8 0 32.2 14.4 32.2 32.2s-14.4 32.2-32.2 32.2H273.3z m461.1-619.2c-18.9 0-34.3 15.4-34.3 34.3s15.4 34.3 34.3 34.3 34.3-15.4 34.3-34.3c-0.1-18.9-15.4-34.3-34.3-34.3z" fill="" p-id="5085"></path></svg>