<?xml version="1.0" standalone="no"?><!DOCTYPE svg PUBLIC "-//W3C//DTD SVG 1.1//EN" "http://www.w3.org/Graphics/SVG/1.1/DTD/svg11.dtd"><svg t="1548302513148" class="icon" style="" viewBox="0 0 1024 1024" version="1.1" xmlns="http://www.w3.org/2000/svg" p-id="10697" xmlns:xlink="http://www.w3.org/1999/xlink" width="800" height="800"><defs><style type="text/css">@font-face { font-family: uc-nexus-iconfont; src: url("chrome-extension://pogijhnlcfmcppgimcaccdkmbedjkmhi/res/font_9qmmi8b8jsxxbt9.woff") format("woff"), url("chrome-extension://pogijhnlcfmcppgimcaccdkmbedjkmhi/res/font_9qmmi8b8jsxxbt9.ttf") format("truetype"); }
</style></defs><path d="M650.859598 475.008294l-13.20036 4.604777c-30.186869-43.489557-76.950934-68.45768-128.626761-68.560008-51.164185-0.102328-99.565504 25.786749-129.547717 69.173978-1.637254 2.353553-2.251224 5.321075-1.739582 8.18627 0.511642 2.865194 2.148896 5.423404 4.502448 6.958329l24.865794 16.884181c1.637254 1.125612 3.581493 1.739582 5.525732 1.739582 3.274508 0 6.344359-1.637254 8.288598-4.297792 20.874988-29.470571 53.006096-46.354752 88.104727-46.354752 29.163585 0.102328 57.201559 12.279404 77.462576 33.768362l-7.981613 2.762866c-3.479165 1.22794-6.037374 4.297792-6.856001 7.981613-0.716299 3.78615 0.511642 7.674628 3.172179 10.130509l56.792245 53.108424c1.841911 1.739582 4.297792 2.762866 6.753672 2.762866 1.125612 0 2.148896-0.204657 3.274508-0.511642 3.479165-1.22794 6.037374-4.297792 6.856001-7.981613l15.553912-77.974218c0.716299-3.78615-0.511642-7.674628-3.172179-10.130509C658.124913 474.701309 654.236434 473.780354 650.859598 475.008294L650.859598 475.008294zM651.166583 637.096432 626.300789 620.212251c-1.637254-1.125612-3.581493-1.739582-5.525732-1.739582-3.274508 0-6.344359 1.637254-8.288598 4.297792-20.874988 29.470571-53.006096 46.354752-88.104727 46.354752-29.163585 0-57.201559-12.279404-77.462576-33.768362l7.981613-2.762866c3.479165-1.22794 6.037374-4.195463 6.856001-7.981613 0.716299-3.683821-0.511642-7.572299-3.172179-10.130509l-56.792245-53.108424c-2.660538-2.558209-6.651344-3.376836-10.02818-2.148896-3.479165 1.22794-6.037374 4.195463-6.856001 7.981613l-15.553912 77.974218c-0.716299 3.683821 0.511642 7.572299 3.172179 10.130509 2.660538 2.455881 6.549016 3.376836 10.02818 2.148896l13.20036-4.502448c30.186869 43.489557 76.950934 68.45768 128.626761 68.560008 51.164185 0.102328 99.667833-25.786749 129.547717-69.173978 1.637254-2.353553 2.251224-5.321075 1.739582-8.18627C655.15739 641.189567 653.520136 638.631358 651.166583 637.096432L651.166583 637.096432zM842.622964 161.064855l-650.603777-1.023284c-24.558809 0-44.512841 20.772659-44.512841 46.354752l-1.023284 609.570101c0 25.582093 19.851704 46.45708 44.308184 46.559408l650.603777 1.023284c24.45648 0.102328 44.410513-20.772659 44.512841-46.354752l1.023284-609.570101C887.033477 181.939842 867.181773 161.064855 842.622964 161.064855L842.622964 161.064855zM708.572799 238.834416c0-9.516538 7.367643-17.191166 16.474868-17.191166l16.372539 0c9.004897 0 16.372539 7.674628 16.372539 17.191166l0 19.44239c0 9.41421-7.367643 17.088838-16.474868 17.088838l-16.372539 0c-9.107225 0-16.372539-7.674628-16.372539-17.191166L708.572799 238.834416 708.572799 238.834416zM632.235835 238.732088c0-9.516538 7.367643-17.191166 16.372539-17.088838l16.372539 0c9.107225 0 16.372539 7.674628 16.372539 17.191166l0 19.44239c0 9.516538-7.367643 17.191166-16.474868 17.088838l-16.372539 0c-9.107225 0-16.372539-7.674628-16.372539-17.191166L632.235835 238.732088 632.235835 238.732088zM832.697112 807.780154l-632.798641-1.023284 0.818627-480.534026 632.798641 1.023284L832.697112 807.780154 832.697112 807.780154 832.697112 807.780154zM834.027381 258.481463c0 9.516538-7.367643 17.191166-16.474868 17.191166l-16.372539-0.102328c-9.107225 0-16.372539-7.674628-16.372539-17.191166l0-19.44239c0-9.516538 7.367643-17.191166 16.474868-17.191166l16.372539 0c9.107225 0 16.372539 7.674628 16.372539 17.191166L834.027381 258.481463 834.027381 258.481463zM834.027381 258.481463" p-id="10698"></path></svg>