<?xml version="1.0" encoding="utf-8"?>
<!-- Generator: Adobe Illustrator 23.0.1, SVG Export Plug-In . SVG Version: 6.00 Build 0)  -->
<svg version="1.1" id="图层_1" xmlns="http://www.w3.org/2000/svg" xmlns:xlink="http://www.w3.org/1999/xlink" x="0px" y="0px"
	 viewBox="0 0 800 800" style="enable-background:new 0 0 800 800;" xml:space="preserve">
<style type="text/css">
	.st0{fill:#353535;}
</style>
<path class="st0" d="M623.8,405.2c0,48.7,39.5,88.1,88.1,88.1c48.7,0,88.1-39.5,88.1-88.1c0-48.7-39.4-88.1-88.1-88.1
	C663.2,317.1,623.8,356.6,623.8,405.2L623.8,405.2z M7,405.2c0,48.7,39.5,88.1,88.1,88.1c48.6,0,88.1-39.5,88.1-88.1
	c0-48.7-39.5-88.1-88.1-88.1C46.5,317.1,7,356.6,7,405.2L7,405.2z M315.4,405.2c0,48.7,39.4,88.1,88.1,88.1
	c48.6,0,88.1-39.5,88.1-88.1c0-48.7-39.5-88.1-88.1-88.1C354.8,317.1,315.4,356.6,315.4,405.2L315.4,405.2z"/>
<path class="st0" d="M623.8,125.3c0,48.7,39.5,88.1,88.1,88.1c48.7,0,88.1-39.5,88.1-88.1c0-48.7-39.4-88.1-88.1-88.1
	C663.2,37.2,623.8,76.6,623.8,125.3L623.8,125.3z M7,125.3c0,48.7,39.5,88.1,88.1,88.1c48.6,0,88.1-39.5,88.1-88.1
	c0-48.7-39.5-88.1-88.1-88.1C46.5,37.2,7,76.6,7,125.3L7,125.3z M315.4,125.3c0,48.7,39.4,88.1,88.1,88.1
	c48.6,0,88.1-39.5,88.1-88.1c0-48.7-39.5-88.1-88.1-88.1C354.8,37.2,315.4,76.6,315.4,125.3L315.4,125.3z"/>
<path class="st0" d="M623.8,685.2c0,48.7,39.5,88.1,88.1,88.1c48.7,0,88.1-39.5,88.1-88.1c0-48.7-39.4-88.1-88.1-88.1
	C663.2,597.1,623.8,636.5,623.8,685.2L623.8,685.2z M7,685.2c0,48.7,39.5,88.1,88.1,88.1c48.6,0,88.1-39.5,88.1-88.1
	c0-48.7-39.5-88.1-88.1-88.1C46.5,597.1,7,636.5,7,685.2L7,685.2z M315.4,685.2c0,48.7,39.4,88.1,88.1,88.1
	c48.6,0,88.1-39.5,88.1-88.1c0-48.7-39.5-88.1-88.1-88.1C354.8,597.1,315.4,636.5,315.4,685.2L315.4,685.2z"/>
</svg>
