<?xml version="1.0" standalone="no"?><!DOCTYPE svg PUBLIC "-//W3C//DTD SVG 1.1//EN" "http://www.w3.org/Graphics/SVG/1.1/DTD/svg11.dtd"><svg t="1548317423823" class="icon" style="" viewBox="0 0 1024 1024" version="1.1" xmlns="http://www.w3.org/2000/svg" p-id="13417" xmlns:xlink="http://www.w3.org/1999/xlink" width="800" height="800"><defs><style type="text/css">@font-face { font-family: uc-nexus-iconfont; src: url("chrome-extension://pogijhnlcfmcppgimcaccdkmbedjkmhi/res/font_9qmmi8b8jsxxbt9.woff") format("woff"), url("chrome-extension://pogijhnlcfmcppgimcaccdkmbedjkmhi/res/font_9qmmi8b8jsxxbt9.ttf") format("truetype"); }
</style></defs><path d="M882.729711 526.903641C883.815683 515.621975 884.489428 504.289753 884.489428 492.800031 884.489428 481.310308 883.816653 469.979058 882.729711 458.696419L969.202067 390.336558C987.93485 375.019197 992.748319 348.627253 980.742349 327.771141L888.526097 166.417253C876.831239 145.924753 851.783878 136.092669 828.082067 145.199475L726.757069 186.391558C708.179847 173.04003 688.721792 161.603781 668.695958 152.23642L653.327069 42.736003C649.704569 19.034197 628.90193 1.181281 604.993041 1.181281L420.508041 1.181281C396.289014 1.181281 375.953041 18.620031 372.122486 43.097669L356.805125 152.23642C336.725819 161.654336 317.268736 173.092531 298.690542 186.391558L197.10693 145.04392C175.216374 136.55642 148.721375 145.922808 137.026514 166.417253L44.810264 327.718642C32.805264 348.729336 37.616791 375.12128 56.66068 390.594198L142.771375 458.695447C141.685402 469.924614 141.011653 481.309336 141.011653 492.799059 141.011653 504.28878 141.68443 515.671558 142.771375 526.902669L56.194014 595.262531C37.616791 610.631419 32.803319 636.971836 44.809291 657.776419L137.078041 819.233362C148.82443 839.674334 174.440542 849.50642 197.469569 840.348085L298.794569 799.156006C317.423319 812.507532 336.881375 823.943782 356.85568 833.259616L372.224569 942.915584C376.002625 966.979058 396.339569 984.417806 420.507069 984.417806L604.940541 984.417806C628.848458 984.417806 649.599569 966.564891 653.377625 942.501417L668.694986 833.311143C688.721792 823.893224 708.179847 812.508501 726.756099 799.156006L828.339705 840.555172C834.032067 842.780583 839.983043 843.867532 846.089571 843.867532 863.476791 843.867532 879.726517 834.449613 888.523182 819.18378L980.584844 657.93392C992.643318 637.13128 987.985401 610.738364 968.785961 594.851281L882.726789 526.904614 882.729711 526.903641ZM847.540122 792.478781 732.709014 745.748917C724.11846 742.177949 714.390402 743.576003 707.092903 749.268364 684.426514 766.862671 660.208458 781.094059 635.059014 791.546423 626.623042 795.065863 620.672069 802.828083 619.379014 811.884339L602.457486 932.71795 423.353736 935.356559 406.069569 811.884339C404.827069 802.828083 398.824569 795.117391 390.389569 791.546423 365.447208 781.196145 341.176652 766.914198 318.35568 749.268364 313.750264 745.748917 308.160958 743.887114 302.521097 743.887114 299.261236 743.887114 295.949847 744.507392 292.792069 745.801421L181.997625 793.5667 88.797486 635.525169 186.187902 558.626281C193.329847 552.985447 196.952347 543.980725 195.812902 534.976975 193.950125 521.108225 192.760125 507.083919 192.760125 492.801975 192.760125 478.520031 193.951097 464.495725 195.761375 450.73003 196.952347 441.673781 193.329847 432.721558 186.136375 427.080725L89.727902 353.440725 177.959986 193.122253 292.687069 239.799614C301.277625 243.319058 311.00568 241.972531 318.30318 236.33267 341.021097 218.738364 365.34318 204.455447 390.492625 193.899059 398.928597 190.379614 404.827069 182.669892 406.120124 173.613642L420.507069 52.935586 602.146375 50.296975 619.430541 173.717669C620.673041 182.77392 626.675541 190.484614 635.110541 194.003086 660.15693 204.456419 684.428458 218.686836 707.19693 236.333642 714.544986 241.974475 724.274012 243.320031 732.813039 239.853086L843.607484 192.140308 936.85915 350.077809 839.416238 427.080725C832.274289 432.721558 828.600265 441.673781 829.739711 450.678503 831.499428 464.547253 832.792487 478.571558 832.792487 492.853503 832.792487 507.135447 831.549986 521.159753 829.739711 535.028503 828.601235 544.033225 832.275265 552.984475 839.416238 558.626281L935.772208 632.162253 847.540122 792.480727 847.540122 792.478781ZM512.827347 297.706142C406.121097 297.706142 319.337625 385.213919 319.337625 492.800031 319.337625 600.334614 406.121097 687.89392 512.827347 687.89392 619.533597 687.89392 706.265541 600.386142 706.265541 492.800031 706.265541 385.213919 619.482069 297.706142 512.827347 297.706142L512.827347 297.706142ZM512.827347 636.144475C434.685958 636.144475 371.086097 571.872808 371.086097 492.800031 371.086097 413.727252 434.685958 349.455586 512.827347 349.455586 590.968736 349.455586 654.517069 413.779753 654.517069 492.800031 654.517069 571.820308 590.917208 636.144475 512.827347 636.144475L512.827347 636.144475Z" p-id="13418"></path></svg>