<?xml version="1.0" standalone="no"?><!DOCTYPE svg PUBLIC "-//W3C//DTD SVG 1.1//EN" "http://www.w3.org/Graphics/SVG/1.1/DTD/svg11.dtd"><svg t="1548302495551" class="icon" style="" viewBox="0 0 1024 1024" version="1.1" xmlns="http://www.w3.org/2000/svg" p-id="10433" xmlns:xlink="http://www.w3.org/1999/xlink" width="800" height="800"><defs><style type="text/css">@font-face { font-family: uc-nexus-iconfont; src: url("chrome-extension://pogijhnlcfmcppgimcaccdkmbedjkmhi/res/font_9qmmi8b8jsxxbt9.woff") format("woff"), url("chrome-extension://pogijhnlcfmcppgimcaccdkmbedjkmhi/res/font_9qmmi8b8jsxxbt9.ttf") format("truetype"); }
</style></defs><path d="M939.776 716.0576c0 29.9008-24.32 54.1696-54.2208 54.1696H830.72a114.816 114.816 0 0 0-99.072-57.0368c-42.496 0-79.5648 23.2448-99.4304 57.6a29.696 29.696 0 0 0-5.632-0.5632h-228.3008a114.816 114.816 0 0 0-99.072-57.0368c-42.24 0-79.104 22.9888-99.072 57.0368h-61.696A54.2208 54.2208 0 0 1 84.224 716.032v-217.0112l134.2976-223.8976 177.664 0.6144 3.6352 229.12v40.7552c0 2.6112 0.4608 5.0688 1.0752 7.4752 1.792 14.464 14.0288 25.7536 28.9536 25.7536H939.776v137.216z m-208.128 168.192a56.32 56.32 0 0 1-56.192-56.2432c0-30.976 25.216-56.1664 56.192-56.1664s56.2176 25.1904 56.2176 56.1664a56.32 56.32 0 0 1-56.2176 56.2176z m-432.4352 0a56.2944 56.2944 0 0 1-56.192-56.2432c0-30.976 25.1904-56.1664 56.192-56.1664 30.976 0 56.2176 25.1904 56.2176 56.1664s-25.216 56.2176-56.2176 56.2176zM939.776 161.024v355.2768H458.6496l-0.1792-12.2368v-343.04h481.28zM998.4 131.6864C998.4 115.5328 985.2672 102.4 969.088 102.4H429.1584c-16.2048 0-29.312 13.1328-29.3376 29.312v85.4016l-197.76-0.6656H201.984c-10.3168 0-19.8656 5.4272-25.1392 14.2592l-147.072 245.0944a29.4144 29.4144 0 0 0-4.1728 15.104v225.152a112.9472 112.9472 0 0 0 112.8192 112.7936h46.0032a114.944 114.944 0 0 0 114.7904 114.0224 114.944 114.944 0 0 0 114.7904-114.0224h202.8544a114.944 114.944 0 0 0 114.7904 114.0224 114.944 114.944 0 0 0 114.7904-114.0224h39.1168a112.9472 112.9472 0 0 0 112.8192-112.7936v-166.5024c0-0.6912-0.1536-1.28-0.1792-1.9456 0.0512-0.6656 0.1792-1.28 0.1792-1.9712V131.712H998.4z m-735.0784 200.7296a29.3632 29.3632 0 0 0-40.0896 10.496l-83.712 142.8992a29.312 29.312 0 0 0 50.6112 29.6448l83.6864-142.9248a29.2864 29.2864 0 0 0-10.496-40.1152" p-id="10434"></path></svg>