<?xml version="1.0" standalone="no"?><!DOCTYPE svg PUBLIC "-//W3C//DTD SVG 1.1//EN" "http://www.w3.org/Graphics/SVG/1.1/DTD/svg11.dtd"><svg t="1548301387763" class="icon" style="" viewBox="0 0 1024 1024" version="1.1" xmlns="http://www.w3.org/2000/svg" p-id="5879" xmlns:xlink="http://www.w3.org/1999/xlink" width="800" height="800"><defs><style type="text/css">@font-face { font-family: uc-nexus-iconfont; src: url("chrome-extension://pogijhnlcfmcppgimcaccdkmbedjkmhi/res/font_9qmmi8b8jsxxbt9.woff") format("woff"), url("chrome-extension://pogijhnlcfmcppgimcaccdkmbedjkmhi/res/font_9qmmi8b8jsxxbt9.ttf") format("truetype"); }
</style></defs><path d="M591.402667 640.853333a42.538667 42.538667 0 0 0 25.898666-19.925333l64-110.848a42.666667 42.666667 0 0 0-73.898666-42.666667l-42.666667 73.898667-73.898667-42.666667a42.538667 42.538667 0 0 0-58.282666 15.616l-64 110.848a42.666667 42.666667 0 1 0 73.898666 42.666667l42.666667-73.898667 73.898667 42.666667c10.24 5.888 21.845333 7.082667 32.426666 4.266667zM512 256a298.666667 298.666667 0 0 1 298.666667 298.666667v298.666666H213.333333v-298.666666a298.666667 298.666667 0 0 1 298.666667-298.666667zM213.333333 896h597.333334a42.666667 42.666667 0 0 1 0 85.333333H213.333333a42.666667 42.666667 0 0 1 0-85.333333z m298.666667-853.333333a42.666667 42.666667 0 0 1 42.666667 42.666666v42.666667a42.666667 42.666667 0 0 1-85.333334 0V85.333333a42.666667 42.666667 0 0 1 42.666667-42.666666z m234.666667 62.890666a42.666667 42.666667 0 0 1 15.616 58.282667l-21.333334 36.949333a42.666667 42.666667 0 0 1-73.898666-42.666666l21.333333-36.949334a42.666667 42.666667 0 0 1 58.282667-15.616zM918.442667 277.333333a42.666667 42.666667 0 0 1-15.616 58.282667l-36.949334 21.333333a42.666667 42.666667 0 0 1-42.666666-73.898666l36.949333-21.333334a42.666667 42.666667 0 0 1 58.282667 15.616zM981.333333 512a42.666667 42.666667 0 0 1-42.666666 42.666667h-42.666667a42.666667 42.666667 0 0 1 0-85.333334h42.666667a42.666667 42.666667 0 0 1 42.666666 42.666667zM42.666667 512a42.666667 42.666667 0 0 1 42.666666-42.666667h42.666667a42.666667 42.666667 0 0 1 0 85.333334H85.333333a42.666667 42.666667 0 0 1-42.666666-42.666667z m62.890666-234.666667a42.666667 42.666667 0 0 1 58.282667-15.616l36.949333 21.333334a42.666667 42.666667 0 0 1-42.666666 73.898666l-36.949334-21.333333A42.666667 42.666667 0 0 1 105.557333 277.333333zM277.333333 105.557333a42.666667 42.666667 0 0 1 58.282667 15.616l21.333333 36.949334a42.666667 42.666667 0 1 1-73.898666 42.666666l-21.333334-36.949333A42.666667 42.666667 0 0 1 277.333333 105.557333z" p-id="5880"></path></svg>