<?xml version="1.0" standalone="no"?><!DOCTYPE svg PUBLIC "-//W3C//DTD SVG 1.1//EN" "http://www.w3.org/Graphics/SVG/1.1/DTD/svg11.dtd"><svg t="1548317403623" class="icon" style="" viewBox="0 0 1024 1024" version="1.1" xmlns="http://www.w3.org/2000/svg" p-id="12571" xmlns:xlink="http://www.w3.org/1999/xlink" width="800" height="800"><defs><style type="text/css">@font-face { font-family: uc-nexus-iconfont; src: url("chrome-extension://pogijhnlcfmcppgimcaccdkmbedjkmhi/res/font_9qmmi8b8jsxxbt9.woff") format("woff"), url("chrome-extension://pogijhnlcfmcppgimcaccdkmbedjkmhi/res/font_9qmmi8b8jsxxbt9.ttf") format("truetype"); }
</style></defs><path d="M512 1002.666667a149.333333 149.333333 0 0 1-147.626667-128h-142.293333a85.333333 85.333333 0 0 1-66.346667-30.72 82.773333 82.773333 0 0 1-17.493333-68.48l1.28-7.466667 34.56-56.746667A267.946667 267.946667 0 0 0 213.333333 577.066667l2.986667-160.853334a289.92 289.92 0 0 1 89.813333-207.573333 305.493333 305.493333 0 0 1 397.013334-13.44c5.333333 4.266667 10.453333 8.533333 15.36 13.226667a289.28 289.28 0 0 1 90.026666 207.786666l2.133334 160.853334a267.946667 267.946667 0 0 0 38.826666 134.186666L884.48 768l1.28 7.466667a82.773333 82.773333 0 0 1-17.493333 68.48A85.333333 85.333333 0 0 1 801.92 874.666667h-142.293333A149.333333 149.333333 0 0 1 512 1002.666667z m-59.946667-128a64 64 0 0 0 119.893334 0zM512 213.333333a218.88 218.88 0 0 0-149.333333 57.386667 205.226667 205.226667 0 0 0-62.293334 146.773333L298.666667 578.773333a356.906667 356.906667 0 0 1-51.2 176.853334l-21.333334 36.053333L797.866667 789.333333l-21.333334-34.133333a356.906667 356.906667 0 0 1-51.2-176.426667l-2.986666-160.853333A203.733333 203.733333 0 0 0 661.333333 271.146667l-10.88-9.386667A220.16 220.16 0 0 0 512 213.333333z m42.666667-106.666666h-85.333334a42.666667 42.666667 0 0 1 0-85.333334h85.333334a42.666667 42.666667 0 1 1 0 85.333334z" p-id="12572"></path></svg>