<?xml version="1.0" standalone="no"?><!DOCTYPE svg PUBLIC "-//W3C//DTD SVG 1.1//EN" "http://www.w3.org/Graphics/SVG/1.1/DTD/svg11.dtd"><svg t="1548301457148" class="icon" style="" viewBox="0 0 1025 1024" version="1.1" xmlns="http://www.w3.org/2000/svg" p-id="7659" xmlns:xlink="http://www.w3.org/1999/xlink" width="800.78125" height="800"><defs><style type="text/css">@font-face { font-family: uc-nexus-iconfont; src: url("chrome-extension://pogijhnlcfmcppgimcaccdkmbedjkmhi/res/font_9qmmi8b8jsxxbt9.woff") format("woff"), url("chrome-extension://pogijhnlcfmcppgimcaccdkmbedjkmhi/res/font_9qmmi8b8jsxxbt9.ttf") format("truetype"); }
</style></defs><path d="M921.088 732.16c-2.56-9.216-8.704-16.896-17.408-20.992-8.704-4.096-18.944-4.096-27.648 0-1.024 0.512-2.048 0.512-3.584 0.512-4.608 0-8.192-3.584-8.192-8.192 0-3.584 2.048-5.632 3.072-6.144 7.68-5.632 12.288-14.336 12.8-24.064 0.512-9.728-3.072-18.944-10.24-25.6-19.968-18.432-44.032-31.744-69.632-39.424-9.216-2.56-18.432-1.024-26.624 4.096-7.68 5.12-13.312 13.312-14.336 22.528-0.512 4.096-4.096 6.656-7.68 6.656s-7.168-3.072-7.68-6.656c-1.536-9.216-6.656-17.408-14.336-22.528-7.68-5.12-17.408-6.656-26.624-4.096-27.648 8.192-52.736 22.528-73.216 43.008-6.656 6.656-10.24 15.872-9.728 25.088 0.512 9.216 5.12 17.92 12.288 23.552 1.024 0.512 3.072 2.56 3.072 6.144 0 4.608-3.584 8.192-8.192 8.192-1.024 0-2.048 0-3.072-0.512-8.704-3.584-18.432-3.072-26.624 1.536-8.192 4.608-14.336 12.288-16.384 20.992-3.072 12.8-4.608 26.624-4.608 39.936 0 13.824 1.536 27.136 4.608 40.448 2.048 8.704 7.68 16.384 15.36 20.48 7.68 4.608 16.896 5.632 25.6 2.56 1.024 0 1.536-0.512 2.56-0.512 4.608 0 8.192 3.584 8.192 8.192 0 3.072-1.536 5.12-2.56 6.144-6.656 6.144-10.752 14.336-11.264 23.552-0.512 9.216 3.072 17.408 9.728 24.064 20.48 20.48 46.08 35.328 73.728 43.52 9.216 2.56 18.432 1.024 26.624-4.096 7.68-5.12 13.312-13.312 14.336-22.528 0.512-4.096 4.096-6.656 7.68-6.656s7.168 3.072 7.68 6.656c1.536 9.216 6.656 17.408 14.336 22.528 5.12 3.584 11.264 5.12 17.408 5.12 3.072 0 6.144-0.512 9.216-1.536 26.624-7.68 51.712-22.016 71.68-41.472 6.656-6.656 10.24-15.872 9.728-25.088-0.512-9.216-5.12-17.92-12.288-24.064-1.024-0.512-3.072-2.56-3.072-6.144 0-4.608 3.584-8.192 8.192-8.192 1.024 0 2.048 0 3.072 0.512 8.704 3.584 18.432 3.072 27.136-1.024 8.192-4.096 14.336-11.776 16.896-20.992 3.584-13.824 5.12-27.648 5.12-41.984 0.512-14.336-1.536-29.184-5.12-43.52z m-107.52 44.032c0 34.304-27.648 61.952-61.952 61.952-34.304 0-61.952-27.648-61.952-61.952 0-34.304 27.648-61.952 61.952-61.952 34.304 0 61.952 28.16 61.952 61.952zM616.96 625.152c7.168-16.384-0.512-35.328-16.896-42.496-1.024-0.512-2.048-1.024-3.072-1.024 79.872-47.104 134.144-134.144 134.144-233.472 0-149.504-121.856-270.848-270.848-270.848S188.416 198.144 188.416 347.648c0 99.328 53.76 186.368 134.144 233.472-131.072 54.272-223.744 183.296-223.744 333.824 0 17.92 14.336 32.256 32.256 32.256s32.256-14.336 32.256-32.256c0-163.328 133.12-296.448 296.448-296.448 39.936 0 78.848 7.68 115.2 23.04 15.872 7.68 34.816 0 41.984-16.384zM252.928 347.648c0-113.664 92.672-206.336 206.336-206.336 113.664 0 206.848 92.672 206.848 206.336 0 113.664-92.672 206.848-206.848 206.848-113.664 0-206.336-92.672-206.336-206.848z" p-id="7660"></path></svg>