<?xml version="1.0" standalone="no"?><!DOCTYPE svg PUBLIC "-//W3C//DTD SVG 1.1//EN" "http://www.w3.org/Graphics/SVG/1.1/DTD/svg11.dtd"><svg t="1548317415781" class="icon" style="" viewBox="0 0 1024 1024" version="1.1" xmlns="http://www.w3.org/2000/svg" p-id="13296" xmlns:xlink="http://www.w3.org/1999/xlink" width="800" height="800"><defs><style type="text/css">@font-face { font-family: uc-nexus-iconfont; src: url("chrome-extension://pogijhnlcfmcppgimcaccdkmbedjkmhi/res/font_9qmmi8b8jsxxbt9.woff") format("woff"), url("chrome-extension://pogijhnlcfmcppgimcaccdkmbedjkmhi/res/font_9qmmi8b8jsxxbt9.ttf") format("truetype"); }
</style></defs><path d="M901.689327 600.110757l-72.728418 0c-6.973832 24.260543-16.658402 47.37396-28.888957 68.924789l50.962695 49.926086c23.529903 23.060205 23.529903 60.491723 0 83.551928l-42.634006 41.750893c-23.532973 23.066345-61.692061 23.066345-85.225033 0l-50.964742-49.973158c-21.968337 12.024871-45.549406 21.500687-70.276576 28.370141l0 71.216995c0 32.431643-26.863834 58.772568-59.974953 58.772568L482.042711 952.650999c-33.112142 0-59.975976-26.340925-59.975976-58.772568l0-71.216995c-25.610284-7.131421-49.976228-17.127076-72.623018-29.726022l-52.370765 51.328016c-23.530926 23.066345-61.690014 23.066345-85.21787 0l-42.636053-41.750893c-23.532973-23.060205-23.532973-60.491723 0-83.551928l53.30709-52.213175c-11.661597-20.877493-20.772093-43.262316-27.487028-66.638723l-72.728418 0c-33.112142 0-59.920718-26.288736-59.920718-58.774615l0-58.724473c0-32.431643 26.808576-58.774615 59.920718-58.774615l72.728418 0c6.974855-24.206308 16.656355-47.320749 28.888957-68.874647l-54.709019-53.619198c-23.532973-23.060205-23.532973-60.491723 0-83.556021l42.636053-41.750893c23.527856-23.060205 61.685921-23.060205 85.21787 0l54.717206 53.622268c21.969361-12.023848 45.549406-21.500687 70.276576-28.317952l0-71.27123c0-32.43369 26.863834-58.722426 59.975976-58.722426l59.915601 0c33.110095 0 59.974953 26.288736 59.974953 58.722426l0 71.27123c23.788799 6.607488 46.645366 15.512299 67.934229 26.91193l53.30709-52.216245c23.532973-23.060205 61.692061-23.060205 85.225033 0l42.634006 41.750893c23.529903 23.064298 23.529903 60.495816 0 83.556021l-52.370765 51.332109c12.855796 22.227234 23.060205 46.070268 30.297027 71.161736l72.728418 0c33.056883 0 59.920718 26.342971 59.920718 58.774615l0 58.724473C961.610044 573.822021 934.74621 600.110757 901.689327 600.110757L901.689327 600.110757zM511.974417 335.701738c-99.276051 0-179.810249 78.921467-179.810249 176.273702 0 97.351212 80.535221 176.273702 179.810249 176.273702 99.326193 0 179.862437-78.923514 179.862437-176.273702C691.837878 414.623205 611.30061 335.701738 511.974417 335.701738L511.974417 335.701738z" p-id="13297"></path></svg>