<?xml version="1.0" standalone="no"?><!DOCTYPE svg PUBLIC "-//W3C//DTD SVG 1.1//EN" "http://www.w3.org/Graphics/SVG/1.1/DTD/svg11.dtd"><svg class="icon" width="200px" height="200.00px" viewBox="0 0 1024 1024" version="1.1" xmlns="http://www.w3.org/2000/svg"><path d="M512 288a112 112 0 1 0-112-112 112 112 0 0 0 112 112zM654.24 394.4a55.68 55.68 0 0 0-55.68-50.24H568a27.84 27.84 0 0 0-19.84 8.16L512 388.48 475.84 352a27.84 27.84 0 0 0-19.84-8.16h-30.56a55.68 55.68 0 0 0-55.68 49.6L344.32 592a28 28 0 0 0 27.68 32h30.24l23.52 285.44A55.68 55.68 0 0 0 481.44 960h61.28a56 56 0 0 0 55.68-50.88L621.76 624h30.08a28.16 28.16 0 0 0 21.12-9.6 27.68 27.68 0 0 0 6.72-22.4zM791.84 288a112 112 0 1 0-112-112 112 112 0 0 0 112 112z"  /><path d="M232.16 176.16m-112 0a112 112 0 1 0 224 0 112 112 0 1 0-224 0Z"  /><path d="M960 592l-25.92-197.44a55.68 55.68 0 0 0-55.52-50.4H848a27.84 27.84 0 0 0-19.84 8.16l-36.16 36.16L755.68 352a27.68 27.68 0 0 0-19.68-7.84h-30.72a51.52 51.52 0 0 0-9.92 1.76 110.72 110.72 0 0 1 14.56 42.08L736 585.28a83.52 83.52 0 0 1-20.48 66.4A80.96 80.96 0 0 1 687.04 672l18.56 181.44a55.84 55.84 0 0 0 55.68 50.4h61.28a55.84 55.84 0 0 0 55.68-50.88L901.6 624h30.24A28.16 28.16 0 0 0 960 592zM288.8 585.44l25.44-198.88a101.6 101.6 0 0 1 13.92-40.64 44.8 44.8 0 0 0-9.44-1.76H288a27.84 27.84 0 0 0-19.84 8.16l-36.16 36.16L196 352a27.84 27.84 0 0 0-20-7.84H145.6a55.52 55.52 0 0 0-55.68 49.6L64 592a27.52 27.52 0 0 0 6.72 21.92 27.84 27.84 0 0 0 20.96 9.6h30.72l23.36 229.92a55.84 55.84 0 0 0 55.68 50.4h61.44a56 56 0 0 0 55.68-50.88L337.12 672a87.04 87.04 0 0 1-28.16-20 83.84 83.84 0 0 1-20.16-66.56z"  /></svg>