<?xml version="1.0" standalone="no"?><!DOCTYPE svg PUBLIC "-//W3C//DTD SVG 1.1//EN" "http://www.w3.org/Graphics/SVG/1.1/DTD/svg11.dtd"><svg class="icon" width="200px" height="200.00px" viewBox="0 0 1024 1024" version="1.1" xmlns="http://www.w3.org/2000/svg"><path d="M485.6140355 109.61403550000006m-98.94736883333333 0a98.94736883333333 98.94736883333333 0 1 0 197.8947366875 0 98.94736883333333 98.94736883333333 0 1 0-197.8947366875 0Z"  /><path d="M798.2877189375 575.3263155833333c-1.3192978333333332-3.957894479166667-5.277193291666666-7.9157899375-9.235087770833331-10.554385604166667-59.368421104166664-29.02456114583333-101.58596449999999-56.72982445833333-125.33333333333333-81.79649112499999-17.15087672916667-18.470175541666663-39.578947729166664-46.17543885416667-65.96491222916666-84.43508777083332v-11.873684416666665c0-31.663157791666663-7.9157899375-63.326315583333326-25.066666666666666-91.03157889583333-19.789473375-31.663157791666663-42.21754339583333-40.898245562499994-73.8807011875-39.578947729166664h-58.04912327083333c-17.15087672916667 0-46.17543885416667 21.108772187499998-59.368421104166664 31.663157791666663-1.3192978333333332 1.3192978333333332-110.82105227083332 101.58596449999999-110.82105227083332 101.58596547916667-9.235087770833331 9.235087770833331-15.831578895833331 22.428070020833335-15.831578895833331 35.62105227083333L241.54385995833337 617.5438599583333c0 3.957894479166667 1.3192978333333332 7.9157899375 3.957894479166667 11.873683437499999 39.578947729166664 39.578947729166664 88.39298225 11.873684416666665 88.39298225-26.3859645l13.19298225-153.03859664583334c0-1.3192978333333332 0-2.638596645833333 1.3192988125-2.638596645833333l31.663157791666663-36.94035010416666c2.638596645833333-1.3192978333333332 5.277193291666666 0 5.277193291666666 2.6385956666666663V639.9719299791667C360.2807021666667 746.8350877708333 349.7263155833333 778.4982455625 347.08771893750003 786.4140355c-5.277193291666666 6.596491125-15.831578895833331 19.789473375-31.663157791666663 40.898245562499994C294.31578993749997 855.0175433958334 250.77894772916665 914.3859645 238.90526331250004 924.9403510833333 220.43508777083338 939.4526311666666 215.15789447916666 965.8385966458334 228.35087672916666 986.9473688333333c9.235087770833331 13.19298225 23.74736883333333 21.108772187499998 38.25964989583333 21.108771208333334 9.235087770833331 0 17.15087672916667-2.638596645833333 25.066666666666666-7.915788958333334 13.19298225-7.9157899375 26.3859645-25.066666666666666 96.30877120833333-117.41754437499999 13.19298225-17.15087672916667 26.3859645-35.62105227083333 30.343859958333333-39.57894675 7.9157899375-10.554385604166667 18.470175541666663-21.108772187499998 50.13333333333333-154.35789545833333 0-1.3192978333333332 1.3192978333333332-2.638596645833333 2.638596645833333-2.6385956666666663H518.5964911250001c1.3192978333333332 0 1.3192978333333332 0 2.638596645833333 1.3192978333333332 77.83859664583333 75.19999999999999 97.62807002083333 98.94736883333333 101.58596449999999 105.54385995833333 7.9157899375 15.831578895833331 13.19298225 85.75438560416666 14.512281062499998 118.73684220833333 1.3192978333333332 22.428070020833335 2.638596645833333 42.21754339583333 5.277193291666666 56.72982445833333 2.638596645833333 23.74736883333333 22.428070020833335 39.578947729166664 46.175437875 39.57894675h6.596492104166667c25.066666666666666-3.957894479166667 43.53684220833333-26.3859645 39.57894675-51.45263116666666-1.3192978333333332-11.873684416666665-2.638596645833333-30.343859958333333-3.957894479166667-50.13333333333333-5.277193291666666-77.83859664583333-10.554385604166667-131.92982445833331-29.02456114583333-160.95438560416667-9.235087770833331-14.512281062499998-29.02456114583333-39.578947729166664-102.9052633125-112.14035108333333-1.3192978333333332 0-1.3192978333333332-1.3192978333333332-1.3192988125-2.638596645833333v-72.56140335416666c0-2.638596645833333 3.957894479166667-3.957894479166667 5.277193291666666-2.638596645833333 29.02456114583333 29.02456114583333 72.56140335416666 58.04912327083333 130.610526625 88.39298225 6.596491125 3.957894479166667 14.512281062499998 5.277193291666666 21.108771208333334 5.277193291666666 30.343859958333333-3.957894479166667 56.72982445833333-31.663157791666663 43.53684220833333-73.88070216666665z"  /></svg>