<?xml version="1.0" standalone="no"?><!DOCTYPE svg PUBLIC "-//W3C//DTD SVG 1.1//EN" "http://www.w3.org/Graphics/SVG/1.1/DTD/svg11.dtd"><svg class="icon" width="200px" height="200.00px" viewBox="0 0 1024 1024" version="1.1" xmlns="http://www.w3.org/2000/svg"><path d="M 713.387 324.267 H 750.933 c 20.48 0 34.1333 -13.6533 34.1333 -34.1333 s -13.6533 -34.1333 -34.1333 -34.1333 h -37.5467 c -17.0667 -95.5733 -98.9867 -170.667 -201.387 -170.667 s -184.32 75.0933 -201.387 170.667 H 273.067 c -20.48 0 -34.1333 13.6533 -34.1333 34.1333 s 13.6533 34.1333 34.1333 34.1333 h 440.32 Z M 136.533 853.333 c 0 10.24 6.82667 17.0667 17.0667 17.0667 H 273.067 v -191.147 C 197.973 716.8 143.36 771.413 136.533 853.333 Z M 716.8 665.6 v 204.8 h 153.6 c 10.24 0 17.0667 -6.82667 17.0667 -17.0667 c -10.24 -92.16 -78.5067 -153.6 -170.667 -187.733 Z M 597.333 573.44 c 71.68 -40.96 119.467 -133.12 119.467 -215.04 H 307.2 c 0 81.92 47.7867 170.667 119.467 215.04 c 10.24 6.82667 17.0667 17.0667 17.0667 30.72 c 0 17.0667 -13.6533 34.1333 -30.72 34.1333 c -37.5467 6.82667 -71.68 17.0667 -105.813 27.3067 v 204.8 h 375.467 v -215.04 c -23.8933 -6.82667 -47.7867 -10.24 -71.68 -17.0667 c -17.0667 -3.41333 -30.72 -17.0667 -30.72 -37.5467 c 0 -10.24 6.82667 -20.48 17.0667 -27.3067 Z" /></svg>